<svg version="1.1" xmlns="http://www.w3.org/2000/svg" viewBox="0 0 514.5 544.8830441869795" width="514.5" height="544.8830441869795">
  <!-- svg-source:excalidraw -->
  
  <defs>
    <style>
      @font-face {
        font-family: "Virgil";
        src: url("https://excalidraw.com/Virgil.woff2");
      }
      @font-face {
        font-family: "Cascadia";
        src: url("https://excalidraw.com/Cascadia.woff2");
      }
    </style>
  </defs>
  <rect x="0" y="0" width="514.5" height="544.8830441869795" fill="#ffffff"></rect><g stroke-linecap="round" transform="translate(61 13.5) rotate(0 26.5 22.5)"><path d="M20.31 1.48 C25.64 -0.05, 34.1 0.23, 39.15 2.09 C44.2 3.94, 48.59 8.2, 50.59 12.61 C52.59 17.03, 52.73 23.68, 51.14 28.58 C49.55 33.48, 45.55 39.4, 41.07 42.03 C36.59 44.67, 29.87 44.97, 24.24 44.37 C18.61 43.78, 11.44 41.71, 7.3 38.47 C3.16 35.23, -0.08 29.67, -0.59 24.93 C-1.1 20.2, 0.34 14.26, 4.24 10.04 C8.14 5.83, 19.25 1.36, 22.8 -0.35 C26.35 -2.06, 25.38 -0.62, 25.53 -0.23 M32.79 -0.5 C38.33 0.44, 46.18 4.69, 49.29 9.14 C52.4 13.58, 52.04 21.21, 51.43 26.18 C50.83 31.14, 49.58 35.65, 45.68 38.91 C41.79 42.17, 33.76 45.64, 28.06 45.73 C22.36 45.83, 16.12 42.25, 11.5 39.47 C6.89 36.68, 1.66 33.3, 0.38 29.02 C-0.9 24.74, 1.44 18.44, 3.84 13.78 C6.25 9.13, 9.85 3.01, 14.82 1.09 C19.79 -0.83, 30.37 1.98, 33.67 2.27 C36.96 2.56, 34.43 2.92, 34.57 2.82" stroke="#000000" stroke-width="1" fill="none"></path></g><g stroke-linecap="round" transform="translate(166.5 11) rotate(0 26.5 22.5)"><path d="M38.49 2.58 C43.48 4.6, 49.23 10.79, 51.44 15.15 C53.65 19.51, 53.64 24.36, 51.74 28.72 C49.84 33.08, 44.77 38.5, 40.06 41.3 C35.35 44.09, 29.06 46.27, 23.47 45.51 C17.88 44.74, 10.28 40.44, 6.53 36.7 C2.78 32.95, 1.1 27.59, 0.98 23.03 C0.86 18.47, 2.42 13.28, 5.82 9.35 C9.22 5.43, 15.7 0.49, 21.37 -0.52 C27.04 -1.53, 36.31 2.41, 39.85 3.31 C43.39 4.21, 42.64 4.56, 42.61 4.88 M24.1 0.61 C29.67 -0.33, 37.58 1.89, 41.98 4.54 C46.37 7.18, 48.73 12.22, 50.47 16.47 C52.22 20.73, 54.53 25.88, 52.43 30.07 C50.33 34.26, 42.94 39.33, 37.86 41.6 C32.78 43.87, 27.33 44.59, 21.95 43.68 C16.57 42.76, 9.14 39.6, 5.57 36.09 C2.01 32.58, 0.24 27.21, 0.53 22.63 C0.82 18.06, 3.73 12.39, 7.31 8.64 C10.9 4.9, 19.52 1.54, 22.04 0.16 C24.57 -1.23, 22.08 0.04, 22.47 0.35" stroke="#000000" stroke-width="1" fill="none"></path></g><g stroke-linecap="round" transform="translate(270.5 11) rotate(0 26.5 22.5)"><path d="M34.83 0.52 C40.3 1.72, 46.37 6.8, 49.39 10.87 C52.41 14.94, 53.69 20.16, 52.95 24.94 C52.21 29.72, 49.27 36.26, 44.97 39.55 C40.67 42.84, 32.79 44.62, 27.12 44.69 C21.46 44.77, 15.51 42.88, 10.97 39.98 C6.44 37.09, 1.25 32.1, -0.11 27.34 C-1.47 22.58, 0.17 15.61, 2.8 11.41 C5.43 7.21, 9.47 3.63, 15.67 2.14 C21.87 0.65, 35.44 1.78, 40.02 2.47 C44.59 3.16, 43.49 5.85, 43.12 6.27 M19.14 0.83 C24.33 -1.11, 32.68 -1.66, 38.04 0.54 C43.4 2.74, 49.16 9.63, 51.31 14.01 C53.46 18.4, 52.49 22.35, 50.93 26.84 C49.36 31.34, 46.42 38.05, 41.9 40.98 C37.38 43.91, 29.34 45.03, 23.82 44.42 C18.31 43.82, 12.97 40.86, 8.8 37.34 C4.63 33.83, -0.59 27.83, -1.21 23.35 C-1.82 18.86, 1.77 14.1, 5.13 10.43 C8.49 6.75, 16.41 2.91, 18.97 1.29 C21.52 -0.33, 20.38 0.3, 20.47 0.7" stroke="#000000" stroke-width="1" fill="none"></path></g><g stroke-linecap="round" transform="translate(368.5 12) rotate(0 26.5 22.5)"><path d="M36.35 1.29 C41.45 2.68, 46.47 6.47, 49.24 10.92 C52 15.36, 54.03 23.02, 52.95 27.96 C51.88 32.89, 47.13 37.66, 42.77 40.5 C38.4 43.34, 32.36 45.31, 26.77 45.02 C21.18 44.74, 13.65 41.87, 9.24 38.79 C4.84 35.71, 1.24 31.21, 0.34 26.53 C-0.57 21.85, 0.76 15.11, 3.8 10.72 C6.83 6.33, 12.64 1.43, 18.54 0.2 C24.44 -1.04, 35.66 2.83, 39.18 3.32 C42.69 3.81, 39.95 2.9, 39.64 3.12 M18.99 -0.71 C24 -2.11, 31.47 0.57, 36.87 2.88 C42.26 5.19, 48.79 8.65, 51.37 13.14 C53.95 17.64, 54.17 25.26, 52.37 29.86 C50.57 34.46, 45.28 38.23, 40.59 40.73 C35.91 43.24, 29.85 45.55, 24.25 44.9 C18.64 44.26, 10.78 40.28, 6.97 36.84 C3.15 33.4, 1.9 29.09, 1.35 24.26 C0.81 19.42, 0.8 11.67, 3.71 7.82 C6.63 3.97, 15.86 2.21, 18.84 1.17 C21.82 0.14, 21.05 1.13, 21.59 1.61" stroke="#000000" stroke-width="1" fill="none"></path></g><g stroke-linecap="round" transform="translate(100.5 89) rotate(0 26.5 22.5)"><path d="M38.09 2.9 C43.12 4.38, 47.15 8.52, 49.61 12.77 C52.07 17.02, 54.08 23.68, 52.86 28.41 C51.64 33.13, 46.91 38.32, 42.3 41.13 C37.69 43.94, 31.09 45.73, 25.2 45.29 C19.3 44.84, 11.01 42.05, 6.93 38.47 C2.85 34.88, 0.95 28.55, 0.72 23.8 C0.49 19.06, 2.32 13.68, 5.56 10.01 C8.79 6.33, 14.29 2.85, 20.14 1.75 C26 0.64, 36.64 2.72, 40.69 3.38 C44.73 4.03, 44.55 5.32, 44.41 5.67 M35.07 1.95 C40.11 3.15, 45.79 5.64, 48.76 9.64 C51.73 13.65, 53.48 21.22, 52.9 25.99 C52.32 30.76, 49.59 35.07, 45.29 38.25 C40.98 41.44, 33.11 44.66, 27.09 45.1 C21.07 45.53, 13.44 43.69, 9.16 40.85 C4.88 38.01, 2.56 32.74, 1.42 28.06 C0.29 23.38, -0.26 17.29, 2.33 12.77 C4.91 8.25, 11.37 2.99, 16.92 0.94 C22.47 -1.11, 32.76 0.12, 35.64 0.48 C38.53 0.85, 34.21 2.49, 34.21 3.13" stroke="#000000" stroke-width="1" fill="none"></path></g><g stroke-linecap="round" transform="translate(451.5 10) rotate(0 26.5 22.5)"><path d="M24.34 0.52 C29.48 -0.25, 35.83 1.22, 40.51 3.8 C45.2 6.37, 50.88 11.29, 52.44 15.96 C54.01 20.62, 52.28 27.15, 49.89 31.76 C47.51 36.37, 43.25 41.52, 38.15 43.63 C33.06 45.74, 24.83 45.8, 19.33 44.42 C13.83 43.03, 8.28 39.11, 5.16 35.31 C2.04 31.51, 0.12 26.44, 0.63 21.6 C1.14 16.75, 3.37 9.83, 8.24 6.24 C13.11 2.66, 25.59 0.8, 29.86 0.06 C34.12 -0.68, 34.1 1.5, 33.84 1.8 M39.13 3.75 C43.72 5.61, 48.66 10.55, 50.61 14.79 C52.57 19.04, 52.71 24.97, 50.87 29.2 C49.02 33.44, 44.46 37.51, 39.55 40.19 C34.64 42.86, 27 45.91, 21.39 45.23 C15.78 44.56, 9.53 39.84, 5.88 36.12 C2.23 32.4, -0.26 27.65, -0.49 22.93 C-0.72 18.2, 0.68 11.75, 4.49 7.76 C8.3 3.77, 16.54 0.05, 22.39 -1.01 C28.23 -2.08, 36.89 0.78, 39.57 1.38 C42.25 1.98, 38.51 2.21, 38.45 2.57" stroke="#000000" stroke-width="1" fill="none"></path></g><g stroke-linecap="round" transform="translate(178.5 88) rotate(0 26.5 22.5)"><path d="M15.59 2.4 C20.5 0.45, 29.35 0.37, 34.76 1.79 C40.16 3.21, 45 7.11, 48 10.94 C51 14.77, 53.27 20.19, 52.77 24.77 C52.27 29.34, 49.22 34.86, 45.02 38.39 C40.81 41.92, 33.09 45.49, 27.52 45.95 C21.95 46.42, 16.03 44.13, 11.57 41.2 C7.1 38.26, 2.24 33.1, 0.73 28.36 C-0.79 23.62, -0.97 17.48, 2.49 12.76 C5.94 8.05, 17.29 2.27, 21.48 0.06 C25.67 -2.14, 27.59 -0.95, 27.62 -0.49 M19.24 -0.43 C24.44 -1.64, 31.8 0.97, 36.75 3.26 C41.7 5.55, 46.61 9.22, 48.96 13.31 C51.3 17.39, 52.09 22.95, 50.82 27.76 C49.55 32.57, 45.93 39.11, 41.33 42.19 C36.74 45.26, 28.61 46.99, 23.24 46.19 C17.88 45.39, 13.19 41.02, 9.16 37.38 C5.12 33.75, -0.43 29.01, -0.95 24.38 C-1.48 19.74, 2.37 13.59, 6 9.58 C9.63 5.57, 18.75 1.76, 20.84 0.31 C22.93 -1.14, 18.65 0.28, 18.55 0.88" stroke="#000000" stroke-width="1" fill="none"></path></g><g stroke-linecap="round" transform="translate(255.5 90) rotate(0 26.5 22.5)"><path d="M17.57 1.56 C22.35 -0.26, 30.05 -0.8, 35.57 1.03 C41.09 2.87, 47.77 8.26, 50.7 12.57 C53.64 16.87, 54.31 22.36, 53.17 26.87 C52.02 31.39, 48.29 36.74, 43.82 39.68 C39.35 42.61, 32.19 44.61, 26.35 44.47 C20.52 44.34, 13.3 42.1, 8.8 38.88 C4.29 35.66, 0.11 29.89, -0.67 25.13 C-1.44 20.37, -0.06 14.56, 4.14 10.32 C8.34 6.08, 19.76 1.36, 24.51 -0.31 C29.27 -1.98, 32.59 -0.28, 32.67 0.28 M13.6 2.13 C18.35 -0.25, 27.46 -1.95, 33.3 -0.66 C39.13 0.62, 45.52 6.05, 48.61 9.86 C51.7 13.66, 52.28 17.33, 51.84 22.16 C51.4 26.99, 49.61 34.84, 45.98 38.84 C42.36 42.84, 35.76 45.88, 30.1 46.16 C24.44 46.45, 16.87 43.34, 12.01 40.57 C7.16 37.8, 2.48 33.76, 0.95 29.57 C-0.58 25.37, 0.66 19.7, 2.82 15.4 C4.98 11.09, 11.97 5.93, 13.92 3.74 C15.87 1.55, 14.34 2.28, 14.53 2.25" stroke="#000000" stroke-width="1" fill="none"></path></g><g stroke-linecap="round"><g transform="translate(116 35.5) rotate(0 24.125001067421408 -0.49728647843004126)"><path d="M-0.01 0.86 C8.4 0.47, 41.62 -1.54, 49.73 -1.86 M-1.48 0.27 C6.91 -0.04, 40.97 -0.77, 49.17 -0.77" stroke="#000000" stroke-width="1" fill="none"></path></g><g transform="translate(116 35.5) rotate(0 24.125001067421408 -0.49728647843004126)"><path d="M27.69 9.12 C30.21 5.25, 37.03 2.26, 47.37 -0.24 M26.05 7.03 C34.9 4.81, 43.53 1.87, 48.2 -1.23" stroke="#000000" stroke-width="1" fill="none"></path></g><g transform="translate(116 35.5) rotate(0 24.125001067421408 -0.49728647843004126)"><path d="M27.47 -7.64 C30.12 -7.54, 36.99 -6.56, 47.37 -0.24 M25.84 -9.73 C34.86 -5.48, 43.56 -1.97, 48.2 -1.23" stroke="#000000" stroke-width="1" fill="none"></path></g></g><g stroke-linecap="round"><g transform="translate(224 33.5) rotate(0 20.792099585118706 -0.27187355956993997)"><path d="M1.05 -0.91 C7.88 -0.96, 34.48 -0.1, 41.44 0.23 M0.15 1.23 C6.73 0.75, 33.15 -1.45, 40.2 -1.77" stroke="#000000" stroke-width="1" fill="none"></path></g><g transform="translate(224 33.5) rotate(0 20.792099585118706 -0.27187355956993997)"><path d="M19.47 5.77 C27.84 4.99, 35.75 1.48, 39.64 -2.06 M21.13 5.71 C26.07 4.67, 30.7 1.88, 39.37 -1.33" stroke="#000000" stroke-width="1" fill="none"></path></g><g transform="translate(224 33.5) rotate(0 20.792099585118706 -0.27187355956993997)"><path d="M18.51 -8.56 C27.27 -4.5, 35.5 -3.15, 39.64 -2.06 M20.17 -8.62 C25.22 -6.25, 30.08 -5.64, 39.37 -1.33" stroke="#000000" stroke-width="1" fill="none"></path></g></g><g stroke-linecap="round"><g transform="translate(158 109.5) rotate(0 9.594312837920143 -0.21933129365555715)"><path d="M-0.18 -0.83 C3.43 -0.66, 17.36 0.19, 20.92 0.22 M-1.73 1.35 C1.77 1.2, 16.23 -1.62, 19.93 -1.79" stroke="#000000" stroke-width="1" fill="none"></path></g><g transform="translate(158 109.5) rotate(0 9.594312837920143 -0.21933129365555715)"><path d="M9.88 2.96 C13.06 2.03, 14.52 0.37, 20.82 -1.86 M10.24 2.79 C13.6 2.09, 16.16 0.88, 19.45 -1.8" stroke="#000000" stroke-width="1" fill="none"></path></g><g transform="translate(158 109.5) rotate(0 9.594312837920143 -0.21933129365555715)"><path d="M8.96 -4.16 C12.32 -3.38, 14 -3.34, 20.82 -1.86 M9.32 -4.33 C12.96 -3, 15.78 -2.2, 19.45 -1.8" stroke="#000000" stroke-width="1" fill="none"></path></g></g><g stroke-linecap="round"><g transform="translate(233 108.5) rotate(0 9.656637679743653 0.8542645598155758)"><path d="M0.12 -0.52 C3.45 -0.46, 16.98 0.66, 20.58 0.83 M-1.27 1.83 C1.82 2.02, 15.74 2.27, 19.53 2.22" stroke="#000000" stroke-width="1" fill="none"></path></g><g transform="translate(233 108.5) rotate(0 9.656637679743653 0.8542645598155758)"><path d="M9.28 5.55 C12.92 5.3, 16.09 2.2, 19.35 3.18 M9.82 6.07 C12.24 4.77, 15.78 3.18, 19.37 2.68" stroke="#000000" stroke-width="1" fill="none"></path></g><g transform="translate(233 108.5) rotate(0 9.656637679743653 0.8542645598155758)"><path d="M9.31 -1.57 C12.97 0.69, 16.13 0.1, 19.35 3.18 M9.85 -1.05 C12.32 -0.23, 15.85 0.31, 19.37 2.68" stroke="#000000" stroke-width="1" fill="none"></path></g></g><g stroke-linecap="round"><g transform="translate(308 102.5) rotate(0 36.86111975300594 -23.041820236295464)"><path d="M1.06 0.44 C13.51 -7.49, 61.43 -38.94, 73.56 -46.53 M0.16 -0.37 C12.51 -7.63, 60.24 -37.5, 72.38 -45.27" stroke="#000000" stroke-width="1" fill="none"></path></g><g transform="translate(308 102.5) rotate(0 36.86111975300594 -23.041820236295464)"><path d="M54.75 -22.28 C56.76 -26.93, 62.97 -30.48, 70.99 -44.03 M54.44 -21.76 C58.4 -27.3, 62.99 -31.67, 72.19 -46.08" stroke="#000000" stroke-width="1" fill="none"></path></g><g transform="translate(308 102.5) rotate(0 36.86111975300594 -23.041820236295464)"><path d="M43.8 -39.63 C48.24 -40.76, 56.74 -40.69, 70.99 -44.03 M43.49 -39.11 C49.94 -40.86, 56.97 -41.36, 72.19 -46.08" stroke="#000000" stroke-width="1" fill="none"></path></g></g><g stroke-linecap="round"><g transform="translate(326 31.5) rotate(0 21.62772386557424 0.39692097082735245)"><path d="M0.27 -0.84 C7.26 -0.43, 34.98 1.39, 42.08 1.64 M-1.05 1.33 C6.3 1.46, 37.12 -0.22, 44.3 -0.15" stroke="#000000" stroke-width="1" fill="none"></path></g><g transform="translate(326 31.5) rotate(0 21.62772386557424 0.39692097082735245)"><path d="M22.9 6.21 C31.64 5.03, 36.19 3.13, 43.92 1.22 M24.99 7.42 C29.38 6.51, 35.64 3.18, 44.53 -0.11" stroke="#000000" stroke-width="1" fill="none"></path></g><g transform="translate(326 31.5) rotate(0 21.62772386557424 0.39692097082735245)"><path d="M22.5 -8.5 C31.26 -5.11, 35.93 -2.43, 43.92 1.22 M24.6 -7.28 C29.12 -4.13, 35.48 -3.39, 44.53 -0.11" stroke="#000000" stroke-width="1" fill="none"></path></g></g><g stroke-linecap="round"><g transform="translate(425 33.5) rotate(0 12.158874001386607 -1.6041084252297964)"><path d="M0.33 -0.25 C4.63 -0.93, 21.15 -2.64, 25.27 -2.96 M-0.96 -1.43 C3.26 -1.39, 20.25 -0.96, 24.47 -1.4" stroke="#000000" stroke-width="1" fill="none"></path></g><g transform="translate(425 33.5) rotate(0 12.158874001386607 -1.6041084252297964)"><path d="M12.51 3.54 C15.77 2.13, 19.62 -0.2, 24.11 -2.63 M12.97 3.56 C15.66 2.67, 17.71 0.95, 23.96 -0.77" stroke="#000000" stroke-width="1" fill="none"></path></g><g transform="translate(425 33.5) rotate(0 12.158874001386607 -1.6041084252297964)"><path d="M12.26 -5.07 C15.66 -4.28, 19.57 -4.41, 24.11 -2.63 M12.72 -5.04 C15.53 -3.98, 17.64 -3.74, 23.96 -0.77" stroke="#000000" stroke-width="1" fill="none"></path></g></g><g stroke-linecap="round"><g transform="translate(265 210.5) rotate(0 0.7142319666174899 47.4505618927721)"><path d="M0.7 -0.28 C1.17 15.56, 1.41 78.93, 1.82 94.89 M-0.39 -1.47 C-0.01 14.58, 0.21 80.57, 0.78 96.37" stroke="#000000" stroke-width="1" fill="none"></path></g><g transform="translate(265 210.5) rotate(0 0.7142319666174899 47.4505618927721)"><path d="M-10.43 68.05 C-7.84 76.36, -4.55 80.34, 2.45 96.29 M-9.52 67.66 C-7.38 77.68, -3.89 86.31, 1.56 95.42" stroke="#000000" stroke-width="1" fill="none"></path></g><g transform="translate(265 210.5) rotate(0 0.7142319666174899 47.4505618927721)"><path d="M10.09 67.7 C8.19 76.21, 6.99 80.26, 2.45 96.29 M10.99 67.3 C6.77 77.37, 3.89 86.11, 1.56 95.42" stroke="#000000" stroke-width="1" fill="none"></path></g></g><g stroke-linecap="round" transform="translate(38.25 377.5) rotate(0 26.5 22.5)"><path d="M25.93 -0.81 C31.22 -0.84, 39.48 2.61, 43.88 5.88 C48.28 9.14, 51.58 13.97, 52.34 18.77 C53.1 23.57, 51.2 30.59, 48.44 34.69 C45.67 38.8, 40.98 41.78, 35.76 43.4 C30.55 45.03, 22.61 46.21, 17.15 44.47 C11.7 42.73, 5.75 37.2, 3.04 32.96 C0.34 28.72, -0.19 23.65, 0.95 19.04 C2.09 14.44, 4.18 8.47, 9.87 5.34 C15.55 2.2, 29.8 0.39, 35.05 0.24 C40.29 0.09, 41.52 4.05, 41.33 4.43 M18.33 2.16 C23.14 0.74, 30.32 1.21, 35.5 2.6 C40.68 3.98, 46.42 6.65, 49.4 10.47 C52.38 14.28, 54.45 20.51, 53.36 25.47 C52.28 30.42, 47.17 36.84, 42.88 40.2 C38.58 43.56, 32.95 45.8, 27.58 45.61 C22.21 45.42, 15.35 42.06, 10.66 39.07 C5.97 36.09, 0.54 32.32, -0.58 27.7 C-1.7 23.08, 1.11 15.5, 3.93 11.35 C6.76 7.21, 14.18 4.2, 16.38 2.83 C18.58 1.46, 16.9 3.01, 17.14 3.16" stroke="#000000" stroke-width="1" fill="none"></path></g><g stroke-linecap="round" transform="translate(143.75 375) rotate(0 26.5 22.5)"><path d="M37.34 2.58 C42.58 4.4, 48.84 8.91, 51.29 13.11 C53.75 17.31, 53.59 23.04, 52.07 27.76 C50.55 32.48, 46.94 38.63, 42.17 41.45 C37.4 44.27, 29.08 45.3, 23.43 44.67 C17.78 44.03, 12.27 40.99, 8.26 37.64 C4.24 34.29, -0.22 29.25, -0.67 24.57 C-1.11 19.89, 2.12 13.49, 5.6 9.59 C9.09 5.68, 14.26 2.01, 20.24 1.12 C26.23 0.23, 37.3 3.17, 41.51 4.26 C45.72 5.34, 45.75 7.41, 45.5 7.63 M33.76 0.57 C39.48 1.26, 46.13 5.18, 49.19 9.23 C52.25 13.28, 52.89 20.16, 52.12 24.88 C51.35 29.59, 48.3 34, 44.56 37.53 C40.82 41.05, 35.06 45.2, 29.67 46 C24.29 46.81, 17.14 45.41, 12.26 42.36 C7.37 39.31, 1.81 32.48, 0.37 27.7 C-1.06 22.92, 1.19 18.1, 3.64 13.68 C6.08 9.26, 9.92 3.42, 15.05 1.17 C20.18 -1.09, 31.24 0.26, 34.43 0.17 C37.63 0.07, 34.52 0.13, 34.21 0.6" stroke="#000000" stroke-width="1" fill="none"></path></g><g stroke-linecap="round" transform="translate(247.75 375) rotate(0 26.5 22.5)"><path d="M15.02 2.91 C19.77 0.77, 27.18 -0.45, 32.49 0.74 C37.79 1.93, 43.41 6.22, 46.87 10.05 C50.33 13.87, 53.46 18.87, 53.22 23.67 C52.99 28.48, 49.51 35.47, 45.47 38.88 C41.43 42.29, 34.49 43.66, 28.97 44.13 C23.44 44.61, 16.94 44.28, 12.35 41.75 C7.75 39.22, 3.02 33.8, 1.41 28.95 C-0.2 24.1, -0.48 17.39, 2.68 12.64 C5.85 7.9, 16.37 2.62, 20.4 0.47 C24.43 -1.68, 26.86 -0.73, 26.87 -0.27 M15.8 3.11 C20.45 0.74, 28.33 -0.89, 33.92 0.1 C39.51 1.1, 46.3 4.86, 49.35 9.08 C52.4 13.31, 52.78 20.4, 52.21 25.46 C51.63 30.51, 49.7 36.26, 45.89 39.41 C42.09 42.55, 35.4 43.89, 29.38 44.31 C23.36 44.74, 14.51 44.67, 9.8 41.94 C5.08 39.2, 2.46 32.58, 1.11 27.92 C-0.25 23.26, -0.71 18.08, 1.67 13.97 C4.05 9.87, 13.07 5.17, 15.39 3.27 C17.71 1.37, 15.32 2.59, 15.6 2.57" stroke="#000000" stroke-width="1" fill="none"></path></g><g stroke-linecap="round" transform="translate(345.75 376) rotate(0 26.5 22.5)"><path d="M3.04 10.59 C3.04 10.59, 3.04 10.59, 3.04 10.59 M3.04 10.59 C3.04 10.59, 3.04 10.59, 3.04 10.59 M-0.49 18.07 C3.76 15.53, 9.69 11.57, 15.17 1.84 M1.65 18.3 C4.32 15.66, 7.8 11.67, 14.2 3.79 M0.72 27.31 C7.05 16.74, 13.06 8.79, 20.44 3.2 M1.21 24.98 C3.57 21.62, 9.22 15.71, 20.04 2.35 M2.45 28.32 C9.72 25.08, 13.08 16.19, 24.73 2.78 M2.29 28.61 C8.81 22.06, 16.31 13.02, 24.93 1.87 M5.19 32.69 C14.6 24.72, 18.79 17.03, 33.37 3.25 M5.81 31.61 C12.26 24.26, 20.1 14.56, 32.18 2.13 M6.95 36.94 C16.49 26.57, 25.74 15.03, 37.31 2.68 M8.52 35.09 C19.89 22.89, 30.88 9.23, 37 1.11 M8.32 39.96 C19.51 27.52, 31.75 16.35, 39.47 2.33 M10.53 38.85 C19.48 28.77, 28.1 17.56, 41.27 3.39 M12.84 40.62 C26.25 29.95, 38.93 16.13, 44.39 6.31 M12.13 43.53 C22.82 31.71, 31.66 20.98, 43.67 6.32 M17.38 45.1 C22.06 37.2, 31.87 26.76, 46.7 7.7 M16.56 44.56 C25.33 33.08, 34.65 21.86, 46.49 8.74 M21.93 44.1 C26.25 38, 32.49 29.28, 51.43 10.17 M20.27 45.89 C31.12 33.01, 42.75 19.29, 50.49 11.17 M27.15 47.88 C31.37 34.64, 41.61 29, 51.09 12.89 M24.91 45.59 C32.93 37.56, 40.41 29.03, 52.37 13.25 M33.52 41.94 C41.48 35.08, 48.59 25.8, 51.4 19.13 M32.89 44.12 C40.1 34.85, 46.96 26.93, 52.92 18.89 M41.67 41.15 C42.12 40.28, 44.57 34.65, 54.15 26.39 M40.27 41.01 C42.92 37.56, 46.96 34.42, 52.42 27.01 M9.33 39.57 C9.33 39.57, 9.33 39.57, 9.33 39.57 M9.33 39.57 C9.33 39.57, 9.33 39.57, 9.33 39.57 M18.72 45.57 C17.31 41.02, 13.16 38.22, -0.92 27.89 M21.13 42.84 C12.1 38.01, 5.12 31.45, 0.8 27.67 M28.03 44.02 C21.52 40.03, 15.3 32.39, 4.12 24.81 M26.78 43.89 C18.12 35.37, 8.97 29.23, 4.13 24.54 M29.51 42.76 C22.33 35.54, 9.4 24.57, 2.63 18.87 M30.21 43.25 C24.81 36.79, 20.55 32.2, 3.08 18.58 M36.01 40.36 C29.82 35.97, 21.84 28.8, 4.88 13.64 M35.17 41.08 C24.73 32.4, 15.48 23.44, 5.56 15.05 M38.95 41.32 C29.58 31.17, 20.18 21.07, 2.35 8.6 M39.95 40.52 C27.05 27.26, 11.68 16.04, 4.65 9.2 M44.2 40.24 C32.99 25.4, 16.37 15.28, 8.88 7.88 M43.83 38.45 C36.53 32.1, 28.5 24.77, 8.17 5.66 M48.98 36.86 C34.9 22.08, 22.31 13.35, 13.23 4.1 M48.26 35.1 C37.22 27.3, 28.16 19.02, 11.74 4.83 M47.23 33.59 C36.68 22.33, 26.11 12.78, 13.27 0.56 M48.79 32.11 C41.8 23.89, 32.9 16.83, 15.3 1.56 M52.73 28.55 C37.61 19.61, 27.81 5.58, 17.83 2.15 M50.56 28.17 C43.05 21.36, 34.26 13.98, 19.52 0.7 M52.22 25.81 C46.68 21.64, 42.42 13.45, 23.35 1.69 M53.9 25.78 C44.45 16.92, 33.66 8.71, 24.78 0.01 M53.28 21.1 C47.03 14.75, 39.91 7.92, 28.71 0.28 M52.59 19.58 C49.01 15.32, 43.15 10.86, 30.5 -1.02" stroke="#fa5252" stroke-width="0.5" fill="none"></path><path d="M18.58 0.92 C23.73 -1.03, 30.9 -1.28, 36.24 0.57 C41.58 2.41, 47.96 7.62, 50.63 11.98 C53.29 16.33, 53.34 22.11, 52.22 26.71 C51.1 31.31, 48.42 36.46, 43.91 39.6 C39.4 42.73, 30.9 45.5, 25.16 45.53 C19.43 45.55, 13.65 42.93, 9.53 39.74 C5.4 36.54, 1.51 31.21, 0.42 26.36 C-0.66 21.5, -0.09 14.84, 3.03 10.6 C6.14 6.37, 16.31 2.66, 19.11 0.95 C21.91 -0.76, 19.6 0.13, 19.81 0.35 M35.16 0.83 C40.16 1.99, 44.94 6.87, 47.73 10.78 C50.51 14.7, 52.28 19.48, 51.87 24.33 C51.46 29.18, 49.1 36.24, 45.26 39.88 C41.42 43.52, 34.67 46.21, 28.83 46.18 C22.98 46.14, 14.63 42.66, 10.18 39.67 C5.72 36.67, 3.3 32.9, 2.09 28.2 C0.87 23.5, 0.33 15.91, 2.87 11.44 C5.41 6.97, 11.92 3.23, 17.32 1.39 C22.73 -0.45, 32.53 0.38, 35.32 0.39 C38.11 0.4, 34.55 1.05, 34.06 1.47" stroke="#000000" stroke-width="1" fill="none"></path></g><g stroke-linecap="round" transform="translate(77.75 453) rotate(0 26.5 22.5)"><path d="M15.76 1.94 C20.37 -0.08, 27.62 0.51, 33.15 1.83 C38.68 3.16, 45.69 5.87, 48.93 9.89 C52.18 13.92, 53.4 21.27, 52.61 25.98 C51.82 30.69, 48.21 34.9, 44.2 38.15 C40.19 41.4, 34.08 45.07, 28.55 45.48 C23.01 45.9, 15.55 43.76, 10.99 40.65 C6.43 37.55, 2.56 31.56, 1.17 26.84 C-0.23 22.11, -0.09 16.65, 2.63 12.29 C5.34 7.93, 14.85 2.39, 17.45 0.66 C20.05 -1.07, 18.2 1.34, 18.2 1.91 M33.5 0 C38.93 0.58, 45.98 4.59, 49.1 8.77 C52.23 12.95, 52.73 20.02, 52.25 25.09 C51.77 30.15, 49.95 35.95, 46.21 39.15 C42.47 42.35, 35.83 43.79, 29.82 44.29 C23.81 44.79, 14.92 44.82, 10.15 42.16 C5.38 39.49, 2.66 32.92, 1.21 28.28 C-0.23 23.64, -0.82 18.45, 1.48 14.31 C3.77 10.17, 9.72 5.62, 14.99 3.42 C20.25 1.22, 29.96 1.59, 33.06 1.09 C36.15 0.59, 33.61 0.3, 33.56 0.42" stroke="#000000" stroke-width="1" fill="none"></path></g><g stroke-linecap="round" transform="translate(428.75 374) rotate(0 26.5 22.5)"><path d="M30.37 -0.75 C35.81 -0.29, 43.4 4.05, 47.13 7.77 C50.85 11.49, 52.55 16.88, 52.72 21.57 C52.9 26.27, 51.77 32.03, 48.18 35.94 C44.6 39.85, 36.82 43.93, 31.21 45.05 C25.59 46.18, 19.38 44.96, 14.51 42.67 C9.65 40.39, 4.36 35.89, 2.02 31.33 C-0.32 26.76, -1.25 19.93, 0.49 15.28 C2.22 10.64, 7.38 6.06, 12.43 3.46 C17.48 0.87, 27.35 0.25, 30.8 -0.29 C34.25 -0.82, 33 -0.32, 33.13 0.25 M24.78 0.79 C29.8 0.25, 37.18 1.12, 41.86 4.15 C46.54 7.18, 51.43 13.94, 52.87 18.96 C54.31 23.99, 53.35 30.4, 50.5 34.31 C47.64 38.21, 40.91 40.74, 35.76 42.4 C30.62 44.06, 24.89 45.77, 19.62 44.26 C14.35 42.74, 7.13 37.55, 4.15 33.31 C1.17 29.07, 0.74 23.52, 1.75 18.84 C2.75 14.16, 6.15 8.37, 10.17 5.26 C14.19 2.14, 23.44 0.97, 25.87 0.15 C28.31 -0.68, 25.01 0.02, 24.79 0.32" stroke="#000000" stroke-width="1" fill="none"></path></g><g stroke-linecap="round" transform="translate(155.75 452) rotate(0 26.5 22.5)"><path d="M32.97 1.79 C38.33 2.74, 45.55 5.75, 48.83 9.76 C52.11 13.77, 53.38 21.11, 52.63 25.82 C51.89 30.54, 48.32 34.77, 44.34 38.04 C40.35 41.32, 34.27 45.02, 28.73 45.47 C23.2 45.92, 15.73 43.83, 11.14 40.75 C6.56 37.67, 2.64 31.71, 1.21 26.99 C-0.22 22.27, 0.09 16.74, 2.54 12.43 C5 8.13, 10.34 2.87, 15.93 1.18 C21.53 -0.52, 32.36 1.82, 36.11 2.26 C39.87 2.71, 38.42 3.62, 38.45 3.87 M37.82 0.89 C42.81 2.66, 46.99 8.31, 49.58 12.89 C52.17 17.47, 54.41 23.84, 53.39 28.35 C52.38 32.85, 48.41 36.94, 43.5 39.94 C38.59 42.93, 29.74 46.45, 23.93 46.29 C18.12 46.13, 12.78 42.25, 8.64 38.96 C4.49 35.67, -0.13 31.13, -0.92 26.55 C-1.72 21.97, 0.65 15.71, 3.88 11.48 C7.11 7.26, 12.9 2.95, 18.45 1.21 C24 -0.53, 34.14 1.05, 37.18 1.03 C40.23 1.01, 36.95 0.8, 36.7 1.11" stroke="#000000" stroke-width="1" fill="none"></path></g><g stroke-linecap="round" transform="translate(232.75 454) rotate(0 26.5 22.5)"><path d="M23.84 0.48 C29.07 -0.29, 35.61 0.83, 40.4 3.28 C45.2 5.73, 50.95 10.48, 52.59 15.2 C54.24 19.91, 52.5 26.98, 50.29 31.57 C48.08 36.17, 44.22 40.53, 39.33 42.76 C34.45 44.99, 26.74 46.06, 20.97 44.94 C15.2 43.82, 8.2 39.93, 4.7 36.05 C1.19 32.17, -0.32 26.57, -0.07 21.67 C0.18 16.77, 1.29 10.39, 6.19 6.66 C11.09 2.92, 24.53 0.03, 29.33 -0.74 C34.14 -1.5, 35.15 1.4, 35.02 2.05 M24.91 -0.62 C30.5 -0.96, 38.8 2.73, 43.49 6.05 C48.19 9.37, 52.15 14.92, 53.09 19.3 C54.03 23.68, 51.71 28.23, 49.11 32.32 C46.51 36.4, 42.64 42.09, 37.48 43.82 C32.32 45.55, 23.51 44.41, 18.16 42.72 C12.8 41.03, 8.1 37.71, 5.35 33.7 C2.61 29.68, 1.04 23.26, 1.69 18.61 C2.34 13.95, 5.38 8.87, 9.27 5.74 C13.16 2.62, 22.47 0.8, 25.05 -0.14 C27.62 -1.08, 24.75 -0.19, 24.73 0.11" stroke="#000000" stroke-width="1" fill="none"></path></g><g stroke-linecap="round"><g transform="translate(93.25 399.5) rotate(0 24.35573818018196 -1.2449567474424725)"><path d="M0.68 -0.32 C9.03 -0.74, 40.9 -2.11, 49.13 -2.17 M-0.42 -1.54 C7.87 -1.88, 39.87 -1.64, 48.25 -1.24" stroke="#000000" stroke-width="1" fill="none"></path></g><g transform="translate(93.25 399.5) rotate(0 24.35573818018196 -1.2449567474424725)"><path d="M24.49 6.8 C28.14 6.5, 35.72 2.5, 47.84 0.45 M25.55 6.92 C31.09 4.93, 36.03 2.29, 48.16 -1.16" stroke="#000000" stroke-width="1" fill="none"></path></g><g transform="translate(93.25 399.5) rotate(0 24.35573818018196 -1.2449567474424725)"><path d="M24.89 -9.96 C28.5 -6.59, 35.99 -6.92, 47.84 0.45 M25.95 -9.84 C31.27 -7.57, 36.1 -5.97, 48.16 -1.16" stroke="#000000" stroke-width="1" fill="none"></path></g></g><g stroke-linecap="round"><g transform="translate(201.25 397.5) rotate(0 21.30446394565979 0.04536901550966377)"><path d="M-0.32 0.13 C6.43 0.19, 33.72 1.13, 40.83 1.06 M1.71 -0.85 C8.78 -1.16, 36.26 -0.79, 42.93 -0.51" stroke="#000000" stroke-width="1" fill="none"></path></g><g transform="translate(201.25 397.5) rotate(0 21.30446394565979 0.04536901550966377)"><path d="M23.24 4.24 C31.29 4.6, 35.54 1.43, 44.63 -1.44 M23.37 6.31 C27.97 3.73, 31.83 2.95, 43.01 -1.23" stroke="#000000" stroke-width="1" fill="none"></path></g><g transform="translate(201.25 397.5) rotate(0 21.30446394565979 0.04536901550966377)"><path d="M23.59 -10.12 C31.61 -5.05, 35.74 -3.49, 44.63 -1.44 M23.72 -8.05 C28.32 -7.36, 32.1 -4.88, 43.01 -1.23" stroke="#000000" stroke-width="1" fill="none"></path></g></g><g stroke-linecap="round"><g transform="translate(135.25 473.5) rotate(0 10.396953931055009 -0.39067847664466626)"><path d="M0.13 -1.17 C3.69 -1.06, 18.63 0.18, 22.06 0.33 M-1.26 0.83 C2.17 0.59, 18.16 -1.63, 21.66 -1.61" stroke="#000000" stroke-width="1" fill="none"></path></g><g transform="translate(135.25 473.5) rotate(0 10.396953931055009 -0.39067847664466626)"><path d="M11.1 3.69 C15.83 0.92, 18.73 0.52, 21.18 -2.38 M12.18 3.01 C15.03 1.08, 18.79 -0.32, 21.29 -1.98" stroke="#000000" stroke-width="1" fill="none"></path></g><g transform="translate(135.25 473.5) rotate(0 10.396953931055009 -0.39067847664466626)"><path d="M10.52 -3.47 C15.44 -3.69, 18.55 -1.53, 21.18 -2.38 M11.6 -4.15 C14.69 -3.55, 18.66 -2.42, 21.29 -1.98" stroke="#000000" stroke-width="1" fill="none"></path></g></g><g stroke-linecap="round"><g transform="translate(210.25 472.5) rotate(0 9.978548771515534 1.3701889844476796)"><path d="M-1.17 1.06 C2.41 1.17, 17.51 0.62, 21.12 0.8 M0.42 0.57 C3.89 0.84, 17.15 2.21, 20.35 2.17" stroke="#000000" stroke-width="1" fill="none"></path></g><g transform="translate(210.25 472.5) rotate(0 9.978548771515534 1.3701889844476796)"><path d="M11.31 5.48 C12.83 4.25, 16.71 3.16, 19.59 2.73 M10.63 4.76 C13.78 4.07, 17.43 2.68, 19.99 2.43" stroke="#000000" stroke-width="1" fill="none"></path></g><g transform="translate(210.25 472.5) rotate(0 9.978548771515534 1.3701889844476796)"><path d="M11.69 -1.63 C13.12 -0.92, 16.89 -0.07, 19.59 2.73 M11.02 -2.35 C14.06 -0.53, 17.57 0.58, 19.99 2.43" stroke="#000000" stroke-width="1" fill="none"></path></g></g><g stroke-linecap="round"><g transform="translate(285.25 466.5) rotate(0 36.91922476043459 -22.95619002953174)"><path d="M1.06 0.33 C13.32 -7.18, 61.36 -38.43, 73.69 -46.25 M0.15 -0.54 C12.22 -7.77, 60.13 -37.34, 72.57 -44.84" stroke="#000000" stroke-width="1" fill="none"></path></g><g transform="translate(285.25 466.5) rotate(0 36.91922476043459 -22.95619002953174)"><path d="M54.41 -21.91 C59.49 -27.14, 64.79 -37.58, 73.64 -43.8 M53.03 -21.59 C59.99 -29.22, 65.6 -37.82, 73.06 -45.66" stroke="#000000" stroke-width="1" fill="none"></path></g><g transform="translate(285.25 466.5) rotate(0 36.91922476043459 -22.95619002953174)"><path d="M43.72 -39.43 C51.95 -39.31, 60.57 -44.31, 73.64 -43.8 M42.33 -39.11 C52.88 -40.94, 62.07 -43.69, 73.06 -45.66" stroke="#000000" stroke-width="1" fill="none"></path></g></g><g stroke-linecap="round"><g transform="translate(303.25 395.5) rotate(0 20.90164354610721 0.2456141418637685)"><path d="M0.33 -0.31 C7.65 -0.15, 35.74 1.94, 42.75 2.02 M-0.95 -1.53 C6.29 -1.17, 34.62 0.01, 41.68 0.43" stroke="#000000" stroke-width="1" fill="none"></path></g><g transform="translate(303.25 395.5) rotate(0 20.90164354610721 0.2456141418637685)"><path d="M20.61 6.37 C26.94 4.51, 27.95 5.21, 42.72 1.1 M20.93 6.69 C27.59 4.25, 33.22 3.48, 40.85 1" stroke="#000000" stroke-width="1" fill="none"></path></g><g transform="translate(303.25 395.5) rotate(0 20.90164354610721 0.2456141418637685)"><path d="M21.33 -8.32 C27.64 -7.2, 28.51 -3.52, 42.72 1.1 M21.65 -8 C28.15 -5.86, 33.56 -2.05, 40.85 1" stroke="#000000" stroke-width="1" fill="none"></path></g></g><g stroke-linecap="round"><g transform="translate(402.25 397.5) rotate(0 12.851084474474192 -1.9013326562941302)"><path d="M-0.31 -0.25 C3.85 -0.89, 21.94 -3.2, 26.02 -3.56 M1.72 -1.42 C5.72 -1.94, 21.46 -1.82, 25.6 -2.31" stroke="#000000" stroke-width="1" fill="none"></path></g><g transform="translate(402.25 397.5) rotate(0 12.851084474474192 -1.9013326562941302)"><path d="M13.74 3.65 C17.91 -0.21, 23.66 -0.53, 26.03 -2.16 M13.95 2.63 C17.6 0.47, 22.38 -1.3, 25.96 -1.97" stroke="#000000" stroke-width="1" fill="none"></path></g><g transform="translate(402.25 397.5) rotate(0 12.851084474474192 -1.9013326562941302)"><path d="M13.32 -4.96 C17.67 -5.47, 23.59 -2.46, 26.03 -2.16 M13.52 -5.97 C17.25 -5.15, 22.17 -3.95, 25.96 -1.97" stroke="#000000" stroke-width="1" fill="none"></path></g></g><g stroke-linecap="round"><g transform="translate(448 375.5) rotate(0 0.33001595363020897 -20.19990231618283)"><path d="M-0.99 0.68 C-0.57 -6.26, 1.15 -34.13, 1.65 -41.08 M0.69 -0.01 C1.08 -6.81, 0.87 -32.96, 1.04 -39.59" stroke="#000000" stroke-width="1" fill="none"></path></g></g><g stroke-linecap="round"><g transform="translate(450 335.5) rotate(0 -189.452095286795 -3.5415888784592937)"><path d="M-0.24 0.22 C-63.08 -0.78, -314.7 -4.53, -377.82 -5.81 M-1.82 -0.71 C-64.74 -2.03, -316.22 -6.36, -378.67 -7.31" stroke="#000000" stroke-width="1" fill="none"></path></g></g><g stroke-linecap="round"><g transform="translate(73 327.5) rotate(0 -0.5075541253853544 24.76263596194329)"><path d="M-0.82 -0.82 C-1.18 7.33, -1.06 40.46, -1.01 48.87 M0.95 1.37 C0.32 9.7, -1.63 42.63, -1.96 50.34" stroke="#000000" stroke-width="1" fill="none"></path></g><g transform="translate(73 327.5) rotate(0 -0.5075541253853544 24.76263596194329)"><path d="M-10.48 26.89 C-6.48 37.06, -2.37 44.95, -1.51 51.01 M-9.42 27.82 C-7.25 32.27, -5.19 38.19, -1.18 51.02" stroke="#000000" stroke-width="1" fill="none"></path></g><g transform="translate(73 327.5) rotate(0 -0.5075541253853544 24.76263596194329)"><path d="M6.26 27.78 C3.6 37.48, 1.06 45.01, -1.51 51.01 M7.32 28.71 C5.11 33, 2.78 38.69, -1.18 51.02" stroke="#000000" stroke-width="1" fill="none"></path></g></g><g stroke-linecap="round"><g transform="translate(83 533.5) rotate(0 0.33780986587515827 -17.88418032303457)"><path d="M0.08 -0.49 C0 -6.37, -0.46 -29.66, -0.11 -35.28 M-1.34 -1.79 C-1.09 -7.49, 1.45 -28.16, 2.02 -33.89" stroke="#000000" stroke-width="1" fill="none"></path></g><g transform="translate(83 533.5) rotate(0 0.33780986587515827 -17.88418032303457)"><path d="M5.45 -18.5 C4.4 -20.72, 4.61 -28.04, 1.75 -33.27 M6.19 -17.69 C5.3 -21.06, 3.06 -25.83, 2.43 -34.23" stroke="#000000" stroke-width="1" fill="none"></path></g><g transform="translate(83 533.5) rotate(0 0.33780986587515827 -17.88418032303457)"><path d="M-6.46 -19.81 C-3.61 -21.61, 0.49 -28.5, 1.75 -33.27 M-5.71 -19 C-3.26 -21.93, -2.14 -26.33, 2.43 -34.23" stroke="#000000" stroke-width="1" fill="none"></path></g></g><g stroke-linecap="round"><g transform="translate(117.5 535) rotate(0 0.7671332040033576 -18.04975902661681)"><path d="M-1 -0.12 C-0.94 -6.29, -0.03 -30.13, 0.23 -35.98 M0.67 -1.22 C1.13 -6.77, 2.72 -29.49, 2.53 -34.96" stroke="#000000" stroke-width="1" fill="none"></path></g><g transform="translate(117.5 535) rotate(0 0.7671332040033576 -18.04975902661681)"><path d="M7.91 -19.49 C4.9 -23.84, 4.39 -29.23, 1.12 -36.4 M8.03 -19 C5.59 -23.99, 3.39 -30.21, 2.48 -34.91" stroke="#000000" stroke-width="1" fill="none"></path></g><g transform="translate(117.5 535) rotate(0 0.7671332040033576 -18.04975902661681)"><path d="M-4.06 -19.8 C-3.63 -23.97, -0.71 -29.27, 1.12 -36.4 M-3.94 -19.32 C-1.85 -24.13, 0.47 -30.23, 2.48 -34.91" stroke="#000000" stroke-width="1" fill="none"></path></g></g><g transform="translate(38 25.5) rotate(0 7 13)"><text x="0" y="18" font-family="Virgil, Segoe UI Emoji" font-size="20px" fill="#000000" text-anchor="start" style="white-space: pre;" direction="ltr">A</text></g><g transform="translate(53 98.5) rotate(0 8 13)"><text x="0" y="18" font-family="Virgil, Segoe UI Emoji" font-size="20px" fill="#000000" text-anchor="start" style="white-space: pre;" direction="ltr">B</text></g><g transform="translate(10 385.5) rotate(0 7 13)"><text x="0" y="18" font-family="Virgil, Segoe UI Emoji" font-size="20px" fill="#000000" text-anchor="start" style="white-space: pre;" direction="ltr">A</text></g><g transform="translate(42 460.5) rotate(0 8 13)"><text x="0" y="18" font-family="Virgil, Segoe UI Emoji" font-size="20px" fill="#000000" text-anchor="start" style="white-space: pre;" direction="ltr">B</text></g></svg>